<?xml version="1.0" encoding="UTF-8"?>
<svg height="48px" version="1.1" viewBox="0 0 48 48" width="48px" xmlns="http://www.w3.org/2000/svg"><title>消息图标</title><g fill="none" fill-rule="evenodd" id="FBUI原子组件" stroke="none" stroke-width="1"><g fill="#363940" fill-rule="nonzero" id="FBUI基础控件库" transform="translate(-776.000000, -1541.000000)"><g id="消息图标" transform="translate(776.000000, 1541.000000)"><path d="M16,16 C24.836556,16 32,23.163444 32,32 C32,40.501622 25.3692999,47.454561 16.9972919,47.9694248 L17,48 L0.998400512,48 C0.722258138,48 0.498400512,47.7761424 0.498400512,47.5 C0.498400512,47.392034 0.533347615,47.2869684 0.598016472,47.2005127 L4.02899987,42.6160643 C1.52228221,39.7914888 0,36.0735184 0,32 C0,23.163444 7.163444,16 16,16 Z M16,20 C9.372583,20 4,25.372583 4,32 C4,34.8549538 4.9959027,37.545443 6.78315729,39.6850613 L7.02074846,39.9609861 L9.18614029,42.4009549 L7.988,44 L16.362,44 L16.7517628,43.9769675 C22.9535433,43.5955689 27.842629,38.5134353 27.9962756,32.3014469 L28,32 C28,25.372583 22.627417,20 16,20 Z M32,0 C40.836556,0 48,7.163444 48,16 C48,19.9330523 46.5808927,23.5346543 44.226782,26.320702 L43.9710001,26.6160643 L47.4019835,31.2005127 C47.4666524,31.2869684 47.5015995,31.392034 47.5015995,31.5 C47.5015995,31.7454599 47.3247243,31.9496084 47.0914751,31.9919443 L47.0015995,32 L36,32 C36,30.6302293 35.8622976,29.2926208 35.5999808,28.0002624 L40.011,28 L38.8138597,26.4009549 L40.9792515,23.9609861 C42.9156145,21.7790877 44,18.9790822 44,16 C44,9.372583 38.627417,4 32,4 C26.585546,4 22.0086348,7.58594712 20.5146523,12.5124555 C19.2210492,12.2131822 17.8793545,12.0401881 16.5031668,12.0062059 C18.2761585,5.10241497 24.5422128,0 32,0 Z" id="形状结合"></path></g></g></g></svg>
