<svg preserveAspectRatio="xMidYMid meet" xmlns="http://www.w3.org/2000/svg" width="14" height="14" fill="#a3a6ad" viewBox="0 0 24 24"><g><path data-follow-fill="currentColor" d="M6.052 22a.5.5 0 0 1-.497-.55l.345-3.452H3a.5.5 0 0 1-.5-.5v-1a.5.5 0 0 1 .5-.5h3.1L6.9 8H4.002a.5.5 0 0 1-.5-.5v-1a.5.5 0 0 1 .5-.5H7.1l.355-3.55A.5.5 0 0 1 7.952 2h.996a.5.5 0 0 1 .497.55L9.1 6h7l.355-3.55a.5.5 0 0 1 .498-.45h.994a.5.5 0 0 1 .498.55L18.1 6h2.902a.5.5 0 0 1 .5.5v1a.5.5 0 0 1-.5.5H17.9l-.8 7.998H20a.5.5 0 0 1 .5.5v1a.5.5 0 0 1-.5.5h-3.1l-.355 3.552a.5.5 0 0 1-.498.45h-.995a.5.5 0 0 1-.497-.55l.345-3.452h-7l-.355 3.552a.5.5 0 0 1-.497.45h-.996ZM8.1 15.998h7L15.9 8h-7l-.8 7.998Z" fill-rule="evenodd"></path></g></svg>
