<svg xmlns="http://www.w3.org/2000/svg" viewBox="0 0 48 48"><g fill-rule="evenodd" fill="none"><path fill="none" d="M0 0h48v48H0z"/><path fill="#1A2033" d="M11.99 14v8c0 6.62 5.38 12 12 12s12-5.38 12-12v-8c0-6.62-5.38-12-12-12s-12 5.38-12 12Zm6.34 13.66c-1.56-1.56-2.34-3.44-2.34-5.66v-8c0-2.2.78-4.1 2.34-5.66C19.89 6.78 21.77 6 23.99 6s4.1.78 5.66 2.34c1.56 1.56 2.34 3.44 2.34 5.66v8c0 2.2-.78 4.1-2.34 5.66-1.56 1.56-3.44 2.34-5.66 2.34s-4.1-.78-5.66-2.34ZM5.37 29.34c2.7 6.82 9.02 11.82 16.62 12.56V45c0 .56.44 1 1 1h2c.56 0 1-.44 1-1v-3.1c7.58-.76 13.92-5.74 16.62-12.56.26-.64-.26-1.34-.94-1.34h-2.18c-.4 0-.74.24-.9.6-.8 1.76-1.88 3.34-3.26 4.72a16.057 16.057 0 0 1-5.42 3.56c-1.9.74-3.86 1.12-5.88 1.12s-4-.38-5.88-1.12c-2.06-.82-3.86-2-5.42-3.56a15.953 15.953 0 0 1-3.26-4.72c-.16-.36-.5-.6-.9-.6H6.33c-.7 0-1.2.7-.94 1.34h-.02Z" data-follow-fill="#1A2033"/></g></svg>
