<svg preserveAspectRatio="xMidYMid meet" xmlns="http://www.w3.org/2000/svg" width="14" height="14" fill="#a3a6ad" viewBox="0 0 24 24"><g><path data-follow-fill="currentColor" d="M6 7v4c0 3.31 2.69 6 6 6s6-2.69 6-6V7c0-3.31-2.69-6-6-6S6 3.69 6 7Zm3.17 6.83C8.39 13.05 8 12.11 8 11V7c0-1.1.39-2.05 1.17-2.83C9.95 3.39 10.89 3 12 3s2.05.39 2.83 1.17C15.61 4.95 16 5.89 16 7v4c0 1.1-.39 2.05-1.17 2.83-.78.78-1.72 1.17-2.83 1.17s-2.05-.39-2.83-1.17Zm-6.48.84c1.35 3.41 4.51 5.91 8.31 6.28v1.55c0 .28.22.5.5.5h1c.28 0 .5-.22.5-.5v-1.55c3.79-.38 6.96-2.87 8.31-6.28.13-.32-.13-.67-.47-.67h-1.09c-.2 0-.37.12-.45.3a7.977 7.977 0 0 1-4.34 4.14 8 8 0 0 1-8.59-1.78 7.977 7.977 0 0 1-1.63-2.36.491.491 0 0 0-.45-.3H3.17c-.35 0-.6.35-.47.67h-.01Z" fill-rule="evenodd"></path></g></svg>
