<svg preserveAspectRatio="xMidYMid meet" xmlns="http://www.w3.org/2000/svg" width="14" height="14" fill="#a3a6ad" viewBox="0 0 24 24"><g><path data-follow-fill="currentColor" d="M15.5 20a1 1 0 0 0 1-1V5a1 1 0 0 0-1-1h-14a1 1 0 0 0-1 1v14a1 1 0 0 0 1 1h14Zm-1-2h-12V6h12v12Zm8.858-1.251a1 1 0 0 0 .142-.515V7.767a1 1 0 0 0-1.515-.858L18.5 9v6l3.485 2.092a1 1 0 0 0 1.373-.343Zm-1.858-2.28-1-.6v-3.736l1-.6v4.936Zm-17-3.719v-2.5A.25.25 0 0 1 4.75 8h2.5a.25.25 0 0 1 .25.25v2.5a.25.25 0 0 1-.25.25h-2.5a.25.25 0 0 1-.25-.25Z" fill-rule="evenodd"></path></g></svg>
