<svg xmlns="http://www.w3.org/2000/svg" viewBox="0 0 48 48"><g fill="#1F2126" fill-rule="evenodd" data-follow-fill="#1F2126"><path fill="none" d="M0 0h48v48H0z"/><path fill-rule="nonzero" d="M31 8a2 2 0 0 1 2 2v28a2 2 0 0 1-2 2H3a2 2 0 0 1-2-2V10a2 2 0 0 1 2-2h28Zm-2 4H5v24h24V12ZM14.5 26a.5.5 0 0 1 .5.5v5a.5.5 0 0 1-.5.5h-5a.5.5 0 0 1-.5-.5v-5a.5.5 0 0 1 .5-.5h5Zm32.215-11.497a2 2 0 0 1 .285 1.03v16.935a2 2 0 0 1-3.029 1.715L37 30V18l6.971-4.183a2 2 0 0 1 2.744.686ZM43 19.064l-2 1.199v7.473l2 1.199v-9.871Z"/></g></svg>
