<svg xmlns="http://www.w3.org/2000/svg" viewBox="0 0 24 24"><g fill-rule="evenodd" fill="none"><path fill="none" d="M0 0h24v24H0z" /><path fill="#1A2033" d="M20 2a3 3 0 0 1 3 3v12a3 3 0 0 1-3 3h-5.015l-2.278 2.278a1 1 0 0 1-1.414 0L9.015 20H4a3 3 0 0 1-3-3V5a3 3 0 0 1 3-3Zm0 2H4a.964.964 0 0 0-.707.293A.964.964 0 0 0 3 5v12c0 .276.098.512.293.707A.963.963 0 0 0 4 18h5.843L12 20.157 14.157 18H20a.964.964 0 0 0 .707-.293A.964.964 0 0 0 21 17V5a.964.964 0 0 0-.293-.707A.964.964 0 0 0 20 4Zm-7.5 10a.5.5 0 0 1 .5.5v1a.5.5 0 0 1-.5.5h-1a.5.5 0 0 1-.5-.5v-1a.5.5 0 0 1 .5-.5h1Zm.475-7.804a3.079 3.079 0 0 1 1.877 1.97c.387 1.248.002 2.517-1.024 3.428-.554.491-.823.743-.923 1.055a.5.5 0 0 1-.475.35H11.4c-.302 0-.547-.267-.497-.564.184-1.083.893-1.712 1.581-2.322.256-.227.642-.68.475-1.296a1.124 1.124 0 0 0-.864-.795 1.151 1.151 0 0 0-1.334.787c-.063.207-.273.336-.49.336H9.26a.498.498 0 0 1-.497-.575 3.135 3.135 0 0 1 1.11-1.867c.857-.697 2.02-.895 3.102-.507Z" data-follow-fill="#1A2033" /></g></svg>
