<?xml version="1.0" standalone="no"?><!DOCTYPE svg PUBLIC "-//W3C//DTD SVG 1.1//EN" "http://www.w3.org/Graphics/SVG/1.1/DTD/svg11.dtd"><svg t="1611199320232" class="icon" viewBox="0 0 1024 1024" version="1.1" xmlns="http://www.w3.org/2000/svg" p-id="7722" xmlns:xlink="http://www.w3.org/1999/xlink" width="200" height="200"><defs><style type="text/css"></style></defs><path d="M694.08 54.4l30.176 30.176c8.32 8.32 8.32 21.824 0 30.176l-87.936 87.904h238.336A85.344 85.344 0 0 1 960 288v597.344a85.344 85.344 0 0 1-85.344 85.312H149.344A85.344 85.344 0 0 1 64 885.344V288a85.344 85.344 0 0 1 85.344-85.344h238.304L299.744 114.752a21.344 21.344 0 0 1-2.24-27.52l2.24-2.656 30.176-30.176c8.32-8.32 21.824-8.32 30.144 0l148.256 148.256h7.328L663.936 54.4c8.32-8.32 21.824-8.32 30.144 0zM874.656 288H149.344v597.344h725.312V288z m-416 155.808a32 32 0 0 1 17.76 5.344l166.304 110.88a32 32 0 0 1 0 53.248l-166.304 110.88a32 32 0 0 1-49.76-26.624v-221.76a32 32 0 0 1 32-32z" fill="#363940" p-id="7723"></path></svg>
