<svg preserveAspectRatio="xMidYMid meet" xmlns="http://www.w3.org/2000/svg" width="14" height="14" fill="#a3a6ad" viewBox="0 0 24 24"><g><path data-follow-fill="currentColor" d="M5.354 2.264 7.09 4H4a3 3 0 0 0-3 3v12a3 3 0 0 0 3 3h16a3 3 0 0 0 3-3V7a3 3 0 0 0-3-3h-3.082l1.733-1.732a.5.5 0 0 0 0-.707l-.708-.708a.5.5 0 0 0-.707 0L14.09 4H9.918L6.768.85a.5.5 0 0 0-.707 0l-.707.707a.5.5 0 0 0 0 .707ZM3.293 19.707Q3 19.414 3 19V7q0-.414.293-.707T4 6h16q.414 0 .707.293T21 7v12q0 .414-.293.707T20 20H4q-.414 0-.707-.293Zm8.256-3.74 3.208-2.138a.996.996 0 0 0 0-1.658l-3.208-2.139a.996.996 0 0 0-1.549.829v4.278a.996.996 0 0 0 1.549.829Z" fill-rule="evenodd"></path></g></svg>
