<svg preserveAspectRatio="xMidYMid meet" xmlns="http://www.w3.org/2000/svg" width="14" height="14" fill="#a3a6ad" viewBox="0 0 24 24"><g><path data-follow-fill="currentColor" d="m9.883 5.639 2.121-2.121a5.999 5.999 0 0 1 8.485 0 5.999 5.999 0 0 1 0 8.484l-2.121 2.122a5.93 5.93 0 0 1-.497.445c.007-.146.01-.294.01-.444a8.29 8.29 0 0 0-.256-2.086l1.45-1.45a3.852 3.852 0 0 0 1.171-2.829c0-1.105-.39-2.047-1.171-2.828a3.852 3.852 0 0 0-2.829-1.171c-1.104 0-2.047.39-2.828 1.17l-2.121 2.122a3.854 3.854 0 0 0-1.171 2.829c0 1.105.39 2.047 1.171 2.828l.007.006v.002c.385.39.577.858.577 1.407 0 .438-.122.824-.366 1.16A6 6 0 0 1 9.883 5.64ZM5.639 9.883c.16-.16.325-.308.498-.446a8.696 8.696 0 0 0-.011.444c0 .731.085 1.427.256 2.086l-1.45 1.451c-.782.782-1.172 1.724-1.172 2.828 0 1.105.39 2.048 1.171 2.829a3.852 3.852 0 0 0 2.829 1.171c1.105 0 2.047-.39 2.828-1.171l2.121-2.122a3.854 3.854 0 0 0 1.172-2.828c0-1.105-.39-2.048-1.172-2.828l-.006-.007v-.002a1.928 1.928 0 0 1-.578-1.407c0-.437.122-.824.367-1.16a6 6 0 0 1 1.631 9.646l-2.121 2.122a6 6 0 1 1-8.485-8.485l2.122-2.121Z" fill-rule="evenodd"></path></g></svg>
