<?xml version="1.0" standalone="no"?><!DOCTYPE svg PUBLIC "-//W3C//DTD SVG 1.1//EN" "http://www.w3.org/Graphics/SVG/1.1/DTD/svg11.dtd"><svg t="1611199777672" class="icon" viewBox="0 0 1024 1024" version="1.1" xmlns="http://www.w3.org/2000/svg" p-id="5490" xmlns:xlink="http://www.w3.org/1999/xlink" width="200" height="200"><defs><style type="text/css"></style></defs><path d="M512 42.656C771.2 42.656 981.344 252.8 981.344 512S771.2 981.344 512 981.344 42.656 771.2 42.656 512 252.8 42.656 512 42.656zM512 128C299.936 128 128 299.936 128 512s171.936 384 384 384 384-171.936 384-384S724.064 128 512 128zM304.288 448.544A42.688 42.688 0 0 1 361.152 512 106.656 106.656 0 1 0 512 512l60.352-60.352a192 192 0 1 1-271.552 0zM723.168 300.8a192 192 0 0 1 5.632 265.696l-5.6 5.856A42.656 42.656 0 1 1 662.848 512 106.656 106.656 0 1 0 512 512l-60.352 60.352A192 192 0 1 1 723.2 300.8z" fill="#363940" p-id="5491"></path></svg>
