<svg preserveAspectRatio="xMidYMid meet" xmlns="http://www.w3.org/2000/svg" width="14" height="14" fill="#a3a6ad" viewBox="0 0 24 24"><g><defs><clipPath id="a"><rect width="24" height="24" rx="0"></rect></clipPath></defs><g clip-path="url(#a)"><path data-follow-fill="currentColor" d="M16.234 2.963a2 2 0 0 1 .266.997v16.086a2 2 0 0 1-2.997 1.734L6.86 17.96H4.5a3 3 0 0 1-3-3v-6a3 3 0 0 1 3-3h2.51l6.493-3.734a2 2 0 0 1 2.73.737ZM14.5 20.046V3.96l-6.957 4H4.5a1 1 0 0 0-1 1v6a1 1 0 0 0 1 1h2.894l7.106 4.086Zm4.885-9.257h3a.5.5 0 0 1 .5.5v1a.5.5 0 0 1-.5.5h-3a.5.5 0 0 1-.5-.5v-1a.5.5 0 0 1 .5-.5Zm-.135 4.53 2.598 1.5a.5.5 0 0 1 .183.684l-.5.866a.5.5 0 0 1-.683.183l-2.598-1.5a.5.5 0 0 1-.183-.683l.5-.866a.5.5 0 0 1 .683-.183Zm-1-8.792 2.598-1.5a.5.5 0 0 1 .683.183l.5.866a.5.5 0 0 1-.183.683l-2.598 1.5a.5.5 0 0 1-.683-.183l-.5-.866a.5.5 0 0 1 .183-.683Z"></path></g></g></svg>
