<svg preserveAspectRatio="xMidYMid meet" xmlns="http://www.w3.org/2000/svg" width="16" height="16" fill="none" viewBox="0 0 24 24"><g><path d="m16.793 2.513 1.35 3.34 3.342 1.352a1 1 0 0 1 .552 1.302L20.625 12l1.412 3.493a1 1 0 0 1-.552 1.302l-3.343 1.35-1.349 3.342a1 1 0 0 1-1.302.553l-3.494-1.412-3.493 1.412a1 1 0 0 1-1.302-.553l-1.35-3.342-3.342-1.35a1 1 0 0 1-.552-1.302L3.368 12l-1.41-3.493a1 1 0 0 1 .552-1.302l3.342-1.35 1.35-3.342a1 1 0 0 1 1.302-.553l3.493 1.411 3.494-1.41a1 1 0 0 1 1.302.552Z" fill-rule="evenodd" fill="#198CFE"/><path d="M18.348 10.765a1.065 1.065 0 0 0-1.474-.314l-.954.62-.014.01-3.163 2.053-.052.033c-.75.45-1.719.24-2.189-.483L8.22 14.168c1.281 1.973 3.956 2.51 5.974 1.2l3.653-2.374.478-.31c.494-.32.634-.98.314-1.473l-.29-.446Zm-2.53-.897c-1.282-1.973-3.957-2.51-5.975-1.2L5.71 11.351c-.493.32-.633.98-.313 1.473l.29.447c.32.493.98.634 1.473.313l4.132-2.683.052-.032c.75-.45 1.719-.24 2.188.482l2.284-1.483Z" fill-rule="evenodd" fill="#FFF"/></g></svg>
