<svg preserveAspectRatio="xMidYMid meet" xmlns="http://www.w3.org/2000/svg" width="16" height="16" fill="none" viewBox="0 0 24 24"><g><path d="m16.793 2.513 1.35 3.34 3.342 1.352a1 1 0 0 1 .552 1.302L20.625 12l1.412 3.493a1 1 0 0 1-.552 1.302l-3.343 1.35-1.349 3.342a1 1 0 0 1-1.302.553l-3.494-1.412-3.493 1.412a1 1 0 0 1-1.302-.553l-1.35-3.342-3.342-1.35a1 1 0 0 1-.552-1.302L3.368 12l-1.41-3.493a1 1 0 0 1 .552-1.302l3.342-1.35 1.35-3.342a1 1 0 0 1 1.302-.553l3.493 1.411 3.494-1.41a1 1 0 0 1 1.302.552Z" fill-rule="evenodd" fill="#00B853"></path><path d="M7.721 11.932a.5.5 0 0 0 .04.663l1.768 1.768.705.705a1.003 1.003 0 0 0 1.417 0l.704-.706 3.891-3.888a.499.499 0 0 0 0-.707l-.705-.704-.043-.039a.501.501 0 0 0-.664.039l-3.891 3.887-1.768-1.767a.502.502 0 0 0-.708 0l-.706.705-.04.044Z" fill="#FFF"></path></g></svg>
